<svg width="13" height="16" viewBox="0 0 13 16" fill="none" xmlns="http://www.w3.org/2000/svg">
<g id="Subtract">
<path fill-rule="evenodd" clip-rule="evenodd" d="M5.71429 0.142857C5.71429 0.0639593 5.65033 0 5.57143 0H2.28571C1.02335 0 0 1.02335 0 2.28571V13.7143C0 14.9767 1.02335 16 2.28571 16H10.2857C11.5481 16 12.5714 14.9767 12.5714 13.7143V7C12.5714 6.9211 12.5075 6.85714 12.4286 6.85714H7.42857C6.4818 6.85714 5.71429 6.08963 5.71429 5.14286V0.142857Z" fill="#4A647E"/>
<path d="M6.97893 0.456429C6.95851 0.436126 6.92789 0.430074 6.90128 0.441077C6.87467 0.452081 6.85726 0.477989 6.85714 0.506786V5.14286C6.85714 5.45845 7.11298 5.71429 7.42857 5.71429H12.0646C12.0934 5.71416 12.1193 5.69676 12.1304 5.67015C12.1414 5.64354 12.1353 5.61292 12.115 5.5925L6.97893 0.456429Z" fill="#4A647E"/>
</g>
</svg>
