<svg width="25" height="30" viewBox="0 0 25 30" fill="none" xmlns="http://www.w3.org/2000/svg">
<path d="M22.3897 3.75H2.31619C2.11144 3.75 1.91505 3.84878 1.77026 4.02459C1.62547 4.20041 1.54413 4.43888 1.54413 4.6875C1.54413 4.93613 1.62547 5.17459 1.77026 5.35041C1.91505 5.52622 2.11144 5.625 2.31619 5.625H22.3897C22.5945 5.625 22.7909 5.52622 22.9356 5.35041C23.0804 5.17459 23.1618 4.93613 23.1618 4.6875C23.1618 4.43888 23.0804 4.20041 22.9356 4.02459C22.7909 3.84878 22.5945 3.75 22.3897 3.75Z" fill="#34495E"/>
<path d="M20.8456 0H3.86029C3.65554 0 3.45915 0.0987719 3.31436 0.274588C3.16958 0.450403 3.08823 0.688859 3.08823 0.9375C3.08823 1.18614 3.16958 1.4246 3.31436 1.60041C3.45915 1.77623 3.65554 1.875 3.86029 1.875H20.8456C21.0503 1.875 21.2467 1.77623 21.3915 1.60041C21.5363 1.4246 21.6176 1.18614 21.6176 0.9375C21.6176 0.688859 21.5363 0.450403 21.3915 0.274588C21.2467 0.0987719 21.0503 0 20.8456 0Z" fill="#34495E"/>
<path fill-rule="evenodd" clip-rule="evenodd" d="M24.7059 16.875H0V28.125C0 28.6223 0.162683 29.0992 0.452262 29.4508C0.74184 29.8025 1.13459 30 1.54412 30H23.1618C23.5713 30 23.964 29.8025 24.2536 29.4508C24.5432 29.0992 24.7059 28.6223 24.7059 28.125V16.875ZM9.49084 20.8996C9.63563 20.7238 9.83199 20.625 10.0368 20.625H14.6691C14.8739 20.625 15.0703 20.7238 15.215 20.8996C15.3598 21.0754 15.4412 21.3139 15.4412 21.5625C15.4412 21.8111 15.3598 22.0496 15.215 22.2254C15.0703 22.4012 14.8739 22.5 14.6691 22.5H10.0368C9.83199 22.5 9.63563 22.4012 9.49084 22.2254C9.34606 22.0496 9.26471 21.8111 9.26471 21.5625C9.26471 21.3139 9.34606 21.0754 9.49084 20.8996Z" fill="#34495E"/>
<path d="M23.1618 7.5H1.54412C1.13459 7.5 0.74184 7.69753 0.452262 8.04919C0.162683 8.40081 0 8.87772 0 9.375V15H24.7059V9.375C24.7059 8.87772 24.5432 8.40081 24.2536 8.04919C23.964 7.69753 23.5713 7.5 23.1618 7.5Z" fill="#34495E"/>
</svg>
