<svg width="15" height="16" viewBox="0 0 15 16" fill="none" xmlns="http://www.w3.org/2000/svg">
<path id="parametres" d="M6.07143 0.5L5.73104 2.375C5.40011 2.47902 5.07966 2.61323 4.77679 2.77121L3.20313 1.68863L1.18304 3.70871L2.27121 5.27678C2.11255 5.58053 1.97934 5.89905 1.875 6.23103L0 6.57142V9.42858L1.875 9.76897C1.97961 10.1018 2.11761 10.4188 2.27679 10.7232L1.18304 12.2913L3.20313 14.3114L4.77121 13.2288C5.07541 13.3878 5.39852 13.5205 5.73104 13.625L6.07143 15.5H8.92857L9.26896 13.625C9.60093 13.5206 9.91946 13.3874 10.2232 13.2288L11.7913 14.3114L13.8114 12.2913L12.7232 10.7232C12.8812 10.4208 13.0152 10.1049 13.1194 9.77456L15 9.42858V6.57142L13.1194 6.23103C13.0158 5.90127 12.886 5.5843 12.7288 5.28237L13.8114 3.70871L11.7913 1.68863L10.2232 2.77121C9.91946 2.61257 9.60095 2.47936 9.26896 2.375L8.92857 0.5H6.07143ZM7.5 4.78571C9.27521 4.78571 10.7143 6.22479 10.7143 7.99999C10.7143 9.77521 9.27521 11.2143 7.5 11.2143C5.7248 11.2143 4.28571 9.77521 4.28571 7.99999C4.28571 6.22479 5.7248 4.78571 7.5 4.78571Z" fill="#4A647E"/>
</svg>
